<svg width="73" height="73" viewBox="0 0 73 73" fill="none" xmlns="http://www.w3.org/2000/svg">
<ellipse cx="36.2771" cy="35.8664" rx="28.8" ry="28.8" fill="#F76300"/>
<path d="M39.0576 51.1097C38.9774 51.0863 38.8972 51.0585 38.8159 51.0384C38.2434 50.897 37.9138 50.4815 37.9138 49.8902C37.916 41.2176 37.9182 32.5451 37.9216 23.8725C37.9216 23.7244 37.9216 23.5774 37.9216 23.4349C36.584 23.1397 35.5003 23.6019 35.0292 24.7435C34.6728 25.6066 34.5915 26.5165 34.5915 27.4331C34.5882 33.3069 34.596 39.1806 34.5993 45.0544C34.5993 45.7104 34.3666 46.0734 33.8487 46.245C33.0557 46.5056 32.3184 46.0244 32.2405 45.1936C32.2293 45.0778 32.2338 44.9597 32.2338 44.8428C32.236 38.9156 32.2371 32.9883 32.2438 27.0622C32.2449 26.0488 32.3574 25.0464 32.6871 24.0797C33.3854 22.0349 34.8666 20.9869 36.9638 20.7263C38.0608 20.5904 39.1455 20.684 40.2748 20.8789C40.2748 21.3433 40.2748 21.7977 40.2748 22.2532C40.2748 22.2955 40.2748 22.3378 40.2748 22.3813C40.2782 31.447 40.2826 40.5138 40.286 49.5794C40.286 50.4938 40.0911 50.7823 39.2491 51.1097C39.1856 51.1097 39.1221 51.1097 39.0576 51.1097Z" fill="white"/>
<path d="M57.2586 38.0829C56.949 38.9372 56.4478 39.2612 55.725 39.0719C55.1982 38.9338 54.8507 38.5384 54.8452 37.9961C54.8318 36.6785 54.8307 35.3599 54.8452 34.0424C54.8518 33.432 55.2929 32.9899 55.9032 32.922C56.5447 32.8496 57.0392 33.1803 57.1996 33.7862C57.2129 33.8363 57.2386 33.8842 57.2575 33.9332C57.2586 35.3165 57.2586 36.6997 57.2586 38.0829Z" fill="white"/>
<path d="M12.5436 45.1328C12.6583 45.1328 12.773 45.1339 12.8877 45.1328C17.611 45.0882 16.2899 45.0259 21.0131 44.998C21.9108 44.9925 22.6581 44.7497 23.2317 44.0347C23.4455 43.7685 23.7596 43.764 24.0436 43.9612C24.2051 44.0736 24.3833 44.1616 24.5949 44.2841C24.6795 43.8676 24.7486 43.509 24.8276 43.1526C24.8644 42.9878 24.8856 42.7984 24.9813 42.6726C25.086 42.5367 25.2631 42.3953 25.4213 42.3786C25.6072 42.3596 25.8267 42.402 25.9068 42.677C26.0928 43.3185 26.3145 43.95 26.5216 44.586C26.5539 44.684 26.5873 44.782 26.6664 44.8733C26.6664 44.7864 26.6675 44.6984 26.6664 44.6116C26.6397 43.3241 26.5907 42.0378 26.5907 40.7503C26.5918 37.2621 26.6118 33.7728 26.6285 30.2847C26.6308 29.6821 27.0952 29.191 27.671 29.1632C28.3771 29.1286 28.8849 29.5396 28.9518 30.2056C28.964 30.3326 28.9607 30.4606 28.9607 30.5887C28.9651 34.1638 28.9696 37.7388 28.9729 41.3127C28.974 42.216 29.0219 43.1236 28.944 44.0202C28.8905 44.6316 28.7045 45.2475 28.484 45.8255C28.2847 46.3467 27.8269 46.6174 27.2489 46.6308C26.4192 46.6508 26.036 46.3579 25.8489 45.5471C25.7554 45.1439 25.6796 44.7363 25.5917 44.332C25.566 44.2129 25.5293 44.097 25.4981 43.979C25.4703 43.979 25.4424 43.979 25.4157 43.979C25.3834 44.1572 25.3511 44.3365 25.3199 44.5147C25.2486 44.9201 25.1361 45.301 24.7731 45.556C24.6038 45.6752 24.4557 45.6796 24.2775 45.5716C23.9567 45.3778 23.7986 45.0994 23.7885 44.7307C23.7852 44.5837 23.7874 44.4367 23.7874 44.2585C22.5055 45.2531 20.992 45.2531 19.5174 45.262C15.6138 45.2843 17.1575 45.2364 13.2528 45.2108C12.8173 45.2074 12.9802 45.1796 12.5447 45.1573C12.5436 45.1473 12.5436 45.1395 12.5436 45.1328Z" fill="white"/>
<path d="M45.9178 36.0064C45.9178 38.3263 45.9223 40.6462 45.9156 42.966C45.9134 43.8225 45.2462 44.337 44.4176 44.1432C43.9365 44.0308 43.6113 43.6365 43.5478 43.083C43.5344 42.9672 43.5378 42.8491 43.5378 42.7322C43.5389 38.2517 43.5411 33.7712 43.5434 29.2907C43.5434 29.1526 43.5422 29.0122 43.5656 28.8775C43.6826 28.1881 44.1592 27.8117 44.842 27.8595C45.5013 27.9052 45.9056 28.3429 45.9067 29.0468C45.9122 31.3666 45.9089 33.6865 45.9089 36.0064C45.9122 36.0064 45.9145 36.0064 45.9178 36.0064Z" fill="white"/>
<path d="M49.2182 36.0195C49.2182 34.1373 49.217 32.2551 49.2182 30.3718C49.2182 29.669 49.6547 29.1667 50.2818 29.1411C51.0424 29.111 51.5414 29.5465 51.5971 30.2927C51.606 30.4096 51.6026 30.5266 51.6026 30.6435C51.6026 34.2275 51.6037 37.8114 51.6015 41.3954C51.6015 41.5758 51.6004 41.7596 51.567 41.9355C51.4434 42.5971 50.9344 42.9412 50.1993 42.8744C49.6492 42.8243 49.2182 42.3309 49.217 41.7295C49.217 39.8273 49.2182 37.9228 49.2182 36.0195Z" fill="white"/>
</svg>
